<mxfile host="app.diagrams.net" agent="Mozilla/5.0 (Windows NT 10.0; Win64; x64) AppleWebKit/537.36 (KHTML, like Gecko) Chrome/138.0.0.0 Whale/4.33.325.17 Safari/537.36" version="28.1.1">
  <diagram name="페이지-1" id="mtb0sJFK-1cN7i5dOqM4">
    <mxGraphModel dx="1146" dy="1305" grid="1" gridSize="10" guides="1" tooltips="1" connect="1" arrows="1" fold="1" page="1" pageScale="1" pageWidth="827" pageHeight="1169" math="0" shadow="0">
      <root>
        <mxCell id="0" />
        <mxCell id="1" parent="0" />
        <mxCell id="JvUOeEXDJDTDxTC4g6xs-10" value="" style="rounded=0;whiteSpace=wrap;html=1;" vertex="1" parent="1">
          <mxGeometry x="199" y="220" width="440" height="600" as="geometry" />
        </mxCell>
        <mxCell id="JvUOeEXDJDTDxTC4g6xs-18" style="rounded=0;orthogonalLoop=1;jettySize=auto;html=1;exitX=0.5;exitY=0.5;exitDx=0;exitDy=0;exitPerimeter=0;entryX=0;entryY=0.5;entryDx=0;entryDy=0;endArrow=none;endFill=0;" edge="1" parent="1" source="JvUOeEXDJDTDxTC4g6xs-1" target="JvUOeEXDJDTDxTC4g6xs-14">
          <mxGeometry relative="1" as="geometry" />
        </mxCell>
        <mxCell id="JvUOeEXDJDTDxTC4g6xs-24" style="rounded=0;orthogonalLoop=1;jettySize=auto;html=1;exitX=0.5;exitY=0.5;exitDx=0;exitDy=0;exitPerimeter=0;entryX=0;entryY=0.5;entryDx=0;entryDy=0;endArrow=none;endFill=0;" edge="1" parent="1" source="JvUOeEXDJDTDxTC4g6xs-1" target="JvUOeEXDJDTDxTC4g6xs-13">
          <mxGeometry relative="1" as="geometry" />
        </mxCell>
        <mxCell id="JvUOeEXDJDTDxTC4g6xs-27" style="rounded=0;orthogonalLoop=1;jettySize=auto;html=1;exitX=0.5;exitY=0.5;exitDx=0;exitDy=0;exitPerimeter=0;entryX=0;entryY=0.5;entryDx=0;entryDy=0;endArrow=none;endFill=0;" edge="1" parent="1" source="JvUOeEXDJDTDxTC4g6xs-1" target="JvUOeEXDJDTDxTC4g6xs-11">
          <mxGeometry relative="1" as="geometry" />
        </mxCell>
        <mxCell id="JvUOeEXDJDTDxTC4g6xs-29" style="rounded=0;orthogonalLoop=1;jettySize=auto;html=1;exitX=0.5;exitY=0.5;exitDx=0;exitDy=0;exitPerimeter=0;entryX=0;entryY=0.5;entryDx=0;entryDy=0;endArrow=none;endFill=0;" edge="1" parent="1" source="JvUOeEXDJDTDxTC4g6xs-1" target="JvUOeEXDJDTDxTC4g6xs-12">
          <mxGeometry relative="1" as="geometry" />
        </mxCell>
        <mxCell id="JvUOeEXDJDTDxTC4g6xs-31" style="rounded=0;orthogonalLoop=1;jettySize=auto;html=1;exitX=0.5;exitY=0.5;exitDx=0;exitDy=0;exitPerimeter=0;entryX=0;entryY=0.5;entryDx=0;entryDy=0;endArrow=none;endFill=0;jumpStyle=none;" edge="1" parent="1" source="JvUOeEXDJDTDxTC4g6xs-1" target="JvUOeEXDJDTDxTC4g6xs-15">
          <mxGeometry relative="1" as="geometry" />
        </mxCell>
        <mxCell id="JvUOeEXDJDTDxTC4g6xs-1" value="사용자" style="shape=umlActor;verticalLabelPosition=bottom;verticalAlign=top;html=1;" vertex="1" parent="1">
          <mxGeometry x="49" y="330" width="30" height="60" as="geometry" />
        </mxCell>
        <mxCell id="JvUOeEXDJDTDxTC4g6xs-3" value="가전기기" style="shape=umlActor;verticalLabelPosition=bottom;verticalAlign=top;html=1;" vertex="1" parent="1">
          <mxGeometry x="719" y="500" width="30" height="60" as="geometry" />
        </mxCell>
        <mxCell id="JvUOeEXDJDTDxTC4g6xs-4" value="스마트 미터" style="shape=umlActor;verticalLabelPosition=bottom;verticalAlign=top;html=1;" vertex="1" parent="1">
          <mxGeometry x="719" y="720" width="30" height="60" as="geometry" />
        </mxCell>
        <mxCell id="JvUOeEXDJDTDxTC4g6xs-25" style="rounded=0;orthogonalLoop=1;jettySize=auto;html=1;exitX=0.5;exitY=0.5;exitDx=0;exitDy=0;exitPerimeter=0;endArrow=none;endFill=0;" edge="1" parent="1" source="JvUOeEXDJDTDxTC4g6xs-5" target="JvUOeEXDJDTDxTC4g6xs-13">
          <mxGeometry relative="1" as="geometry" />
        </mxCell>
        <mxCell id="JvUOeEXDJDTDxTC4g6xs-28" style="rounded=0;orthogonalLoop=1;jettySize=auto;html=1;exitX=0.5;exitY=0.5;exitDx=0;exitDy=0;exitPerimeter=0;entryX=0;entryY=0.5;entryDx=0;entryDy=0;endArrow=none;endFill=0;" edge="1" parent="1" source="JvUOeEXDJDTDxTC4g6xs-5" target="JvUOeEXDJDTDxTC4g6xs-11">
          <mxGeometry relative="1" as="geometry" />
        </mxCell>
        <mxCell id="JvUOeEXDJDTDxTC4g6xs-30" style="rounded=0;orthogonalLoop=1;jettySize=auto;html=1;exitX=0.5;exitY=0.5;exitDx=0;exitDy=0;exitPerimeter=0;entryX=0;entryY=0.5;entryDx=0;entryDy=0;endArrow=none;endFill=0;" edge="1" parent="1" source="JvUOeEXDJDTDxTC4g6xs-5" target="JvUOeEXDJDTDxTC4g6xs-12">
          <mxGeometry relative="1" as="geometry" />
        </mxCell>
        <mxCell id="JvUOeEXDJDTDxTC4g6xs-32" style="rounded=0;orthogonalLoop=1;jettySize=auto;html=1;exitX=0.5;exitY=0.5;exitDx=0;exitDy=0;exitPerimeter=0;endArrow=none;endFill=0;jumpStyle=arc;" edge="1" parent="1" source="JvUOeEXDJDTDxTC4g6xs-5">
          <mxGeometry relative="1" as="geometry">
            <mxPoint x="309" y="720" as="targetPoint" />
          </mxGeometry>
        </mxCell>
        <mxCell id="JvUOeEXDJDTDxTC4g6xs-5" value="클라우드 플랫폼" style="shape=umlActor;verticalLabelPosition=bottom;verticalAlign=top;html=1;" vertex="1" parent="1">
          <mxGeometry x="49" y="590" width="30" height="60" as="geometry" />
        </mxCell>
        <mxCell id="JvUOeEXDJDTDxTC4g6xs-6" value="전력공급사" style="shape=umlActor;verticalLabelPosition=bottom;verticalAlign=top;html=1;" vertex="1" parent="1">
          <mxGeometry x="719" y="300" width="30" height="60" as="geometry" />
        </mxCell>
        <mxCell id="JvUOeEXDJDTDxTC4g6xs-11" value="UC-00 AI 기반 요금예측" style="ellipse;whiteSpace=wrap;html=1;" vertex="1" parent="1">
          <mxGeometry x="323" y="490" width="140" height="70" as="geometry" />
        </mxCell>
        <mxCell id="JvUOeEXDJDTDxTC4g6xs-12" value="UC-00 사용량 조회" style="ellipse;whiteSpace=wrap;html=1;" vertex="1" parent="1">
          <mxGeometry x="323" y="570" width="140" height="70" as="geometry" />
        </mxCell>
        <mxCell id="JvUOeEXDJDTDxTC4g6xs-13" value="UC-00 원격 기기 제어" style="ellipse;whiteSpace=wrap;html=1;" vertex="1" parent="1">
          <mxGeometry x="323" y="400" width="140" height="70" as="geometry" />
        </mxCell>
        <mxCell id="JvUOeEXDJDTDxTC4g6xs-19" style="rounded=0;orthogonalLoop=1;jettySize=auto;html=1;exitX=1;exitY=0.5;exitDx=0;exitDy=0;endArrow=none;endFill=0;" edge="1" parent="1" source="JvUOeEXDJDTDxTC4g6xs-14" target="JvUOeEXDJDTDxTC4g6xs-6">
          <mxGeometry relative="1" as="geometry" />
        </mxCell>
        <mxCell id="JvUOeEXDJDTDxTC4g6xs-14" value="UC-00 전력정보 업데이트" style="ellipse;whiteSpace=wrap;html=1;" vertex="1" parent="1">
          <mxGeometry x="323" y="280" width="140" height="70" as="geometry" />
        </mxCell>
        <mxCell id="JvUOeEXDJDTDxTC4g6xs-15" value="UC-00 이상상태 감지 및 알림" style="ellipse;whiteSpace=wrap;html=1;" vertex="1" parent="1">
          <mxGeometry x="313" y="680" width="160" height="70" as="geometry" />
        </mxCell>
        <mxCell id="JvUOeEXDJDTDxTC4g6xs-21" style="rounded=0;orthogonalLoop=1;jettySize=auto;html=1;exitX=0;exitY=1;exitDx=0;exitDy=0;entryX=0.5;entryY=0.5;entryDx=0;entryDy=0;entryPerimeter=0;endArrow=none;endFill=0;" edge="1" parent="1" source="JvUOeEXDJDTDxTC4g6xs-14" target="JvUOeEXDJDTDxTC4g6xs-5">
          <mxGeometry relative="1" as="geometry" />
        </mxCell>
        <mxCell id="JvUOeEXDJDTDxTC4g6xs-22" style="rounded=0;orthogonalLoop=1;jettySize=auto;html=1;exitX=1;exitY=1;exitDx=0;exitDy=0;entryX=0.5;entryY=0.5;entryDx=0;entryDy=0;entryPerimeter=0;endArrow=none;endFill=0;" edge="1" parent="1" source="JvUOeEXDJDTDxTC4g6xs-14" target="JvUOeEXDJDTDxTC4g6xs-3">
          <mxGeometry relative="1" as="geometry" />
        </mxCell>
        <mxCell id="JvUOeEXDJDTDxTC4g6xs-23" style="rounded=0;orthogonalLoop=1;jettySize=auto;html=1;exitX=0.5;exitY=1;exitDx=0;exitDy=0;entryX=0.5;entryY=0.5;entryDx=0;entryDy=0;entryPerimeter=0;endArrow=none;endFill=0;" edge="1" parent="1" source="JvUOeEXDJDTDxTC4g6xs-14" target="JvUOeEXDJDTDxTC4g6xs-4">
          <mxGeometry relative="1" as="geometry" />
        </mxCell>
        <mxCell id="JvUOeEXDJDTDxTC4g6xs-26" style="rounded=0;orthogonalLoop=1;jettySize=auto;html=1;exitX=1;exitY=0.5;exitDx=0;exitDy=0;entryX=0.5;entryY=0.5;entryDx=0;entryDy=0;entryPerimeter=0;endArrow=none;endFill=0;" edge="1" parent="1" source="JvUOeEXDJDTDxTC4g6xs-13" target="JvUOeEXDJDTDxTC4g6xs-3">
          <mxGeometry relative="1" as="geometry" />
        </mxCell>
      </root>
    </mxGraphModel>
  </diagram>
</mxfile>
